<svg width="31" height="31" viewBox="0 0 31 31" fill="none" xmlns="http://www.w3.org/2000/svg">
<path d="M15.3661 7.57368C11.107 7.57368 7.66978 11.0109 7.66978 15.27C7.66978 19.529 11.107 22.9663 15.3661 22.9663C19.6251 22.9663 23.0624 19.529 23.0624 15.27C23.0624 11.0109 19.6251 7.57368 15.3661 7.57368ZM15.3661 20.272C12.6118 20.272 10.364 18.0243 10.364 15.27C10.364 12.5157 12.6118 10.2679 15.3661 10.2679C18.1204 10.2679 20.3681 12.5157 20.3681 15.27C20.3681 18.0243 18.1204 20.272 15.3661 20.272ZM23.3776 5.46479C22.3832 5.46479 21.5802 6.26782 21.5802 7.26222C21.5802 8.25663 22.3832 9.05965 23.3776 9.05965C24.372 9.05965 25.175 8.26038 25.175 7.26222C25.1753 7.0261 25.129 6.79223 25.0388 6.57403C24.9486 6.35582 24.8162 6.15755 24.6492 5.99059C24.4823 5.82362 24.284 5.69123 24.0658 5.60101C23.8476 5.51079 23.6137 5.4645 23.3776 5.46479V5.46479ZM30.3684 15.27C30.3684 13.1986 30.3872 11.146 30.2709 9.07842C30.1546 6.67684 29.6067 4.54544 27.8505 2.78928C26.0906 1.02938 23.963 0.48527 21.5614 0.368944C19.49 0.252617 17.4374 0.27138 15.3698 0.27138C13.2985 0.27138 11.2459 0.252617 9.17827 0.368944C6.77669 0.48527 4.64529 1.03313 2.88914 2.78928C1.12923 4.54919 0.585124 6.67684 0.468797 9.07842C0.352471 11.1498 0.371233 13.2024 0.371233 15.27C0.371233 17.3376 0.352471 19.3939 0.468797 21.4616C0.585124 23.8631 1.13298 25.9945 2.88914 27.7507C4.64904 29.5106 6.77669 30.0547 9.17827 30.171C11.2496 30.2874 13.3022 30.2686 15.3698 30.2686C17.4412 30.2686 19.4938 30.2874 21.5614 30.171C23.963 30.0547 26.0944 29.5068 27.8505 27.7507C29.6104 25.9908 30.1546 23.8631 30.2709 21.4616C30.391 19.3939 30.3684 17.3413 30.3684 15.27V15.27ZM27.0663 24.1183C26.7923 24.8012 26.4621 25.3116 25.933 25.8369C25.4039 26.366 24.8973 26.6962 24.2144 26.9702C22.2406 27.7544 17.5538 27.5781 15.3661 27.5781C13.1784 27.5781 8.48782 27.7544 6.51402 26.9739C5.83107 26.7 5.32074 26.3698 4.79539 25.8407C4.26629 25.3116 3.93608 24.805 3.66215 24.1221C2.88163 22.1445 3.058 17.4577 3.058 15.27C3.058 13.0823 2.88163 8.39172 3.66215 6.41792C3.93608 5.73497 4.26629 5.22463 4.79539 4.69929C5.32449 4.17394 5.83107 3.83997 6.51402 3.56604C8.48782 2.78553 13.1784 2.9619 15.3661 2.9619C17.5538 2.9619 22.2444 2.78553 24.2182 3.56604C24.9011 3.83997 25.4114 4.17019 25.9368 4.69929C26.4659 5.22839 26.7961 5.73497 27.07 6.41792C27.8505 8.39172 27.6742 13.0823 27.6742 15.27C27.6742 17.4577 27.8505 22.1445 27.0663 24.1183Z" fill="white"/>
</svg>
