<svg width="32" height="32" viewBox="0 0 32 32" fill="none" xmlns="http://www.w3.org/2000/svg">
<path d="M15.2631 2.00407C12.8956 2.0312 7.80562 2.4005 4.95872 4.87968C2.84106 6.87143 2.10168 9.81616 2.01502 13.4575C1.94311 17.0857 1.85645 23.8993 8.77549 25.7545V28.5802C8.77549 28.5802 8.73216 29.7109 9.51948 29.9428C10.4893 30.2342 11.0416 29.3643 11.9635 28.4297L13.6829 26.5841C18.417 26.9578 22.0429 26.0967 22.4605 25.9689C23.4212 25.6775 28.8319 25.0212 29.7161 18.2067C30.6232 11.1691 29.2745 6.73491 26.8397 4.72916H26.8249C26.0901 4.08683 23.1372 2.04433 16.5399 2.02158C16.5399 2.02158 16.0504 1.99007 15.2631 2.0032V2.00407ZM15.3442 3.98269C16.0163 3.97832 16.4247 4.00545 16.4247 4.00545C22.0088 4.01945 24.6741 5.61477 25.3028 6.15209C27.3532 7.82004 28.4097 11.8175 27.6362 17.693C26.9014 23.39 22.5131 23.7505 21.7009 23.9964C21.3551 24.1014 18.1616 24.8488 14.1383 24.6029C14.1383 24.6029 11.1421 28.035 10.2054 28.9189C10.057 29.0738 9.88364 29.1193 9.77301 29.0965C9.61444 29.0598 9.5665 28.8734 9.57572 28.6179L9.6043 23.9282C3.73625 22.388 4.08197 16.5764 4.14466 13.5406C4.21657 10.5049 4.81674 8.02132 6.60343 6.33936C9.00873 4.27498 13.3307 3.9967 15.3423 3.98269H15.3442ZM15.7867 7.01757C15.7384 7.01711 15.6905 7.02572 15.6457 7.04292C15.601 7.06012 15.5602 7.08556 15.5259 7.11777C15.4915 7.14998 15.4642 7.18834 15.4455 7.23062C15.4268 7.27289 15.4171 7.31827 15.417 7.36411C15.417 7.56014 15.5848 7.71503 15.7867 7.71503C16.7008 7.69853 17.6093 7.85397 18.4598 8.17238C19.3103 8.4908 20.0859 8.96589 20.7421 9.57026C22.0816 10.805 22.7343 12.4642 22.7592 14.6336C22.7592 14.8253 22.9224 14.9846 23.1289 14.9846V14.9705C23.2262 14.9708 23.3197 14.9345 23.389 14.8696C23.4582 14.8047 23.4976 14.7164 23.4986 14.624C23.5434 13.6029 23.3689 12.5838 22.9859 11.6287C22.6028 10.6735 22.0191 9.8023 21.2703 9.06795C19.8109 7.71415 17.9615 7.01669 15.7867 7.01669V7.01757ZM10.9273 7.82004C10.6663 7.78385 10.4002 7.83357 10.1731 7.96093H10.1538C9.62666 8.25422 9.15183 8.6249 8.74691 9.0592C8.4104 9.42849 8.22786 9.80216 8.17992 10.1618C8.15134 10.3762 8.1707 10.5906 8.238 10.7954L8.26197 10.8094C8.64088 11.8665 9.13596 12.8834 9.74074 13.8408C10.5198 15.1858 11.4785 16.4297 12.5932 17.5416L12.6264 17.5871L12.6789 17.6239L12.7121 17.6606L12.7508 17.6921C13.9265 18.7533 15.2401 19.6676 16.6598 20.4128C18.2824 21.2512 19.267 21.6476 19.8579 21.8121V21.8209C20.0313 21.8708 20.1889 21.8935 20.3475 21.8935C20.8511 21.8585 21.3279 21.6644 21.7018 21.3422C22.1572 20.9578 22.5434 20.5052 22.845 20.0024V19.9937C23.128 19.4879 23.0321 19.0092 22.6237 18.6854C21.8058 18.0067 20.9213 17.404 19.9824 16.8853C19.3536 16.5615 18.7147 16.7575 18.4557 17.0857L17.9035 17.7464C17.6204 18.0746 17.106 18.0291 17.106 18.0291L17.0912 18.0378C13.2551 17.1076 12.2318 13.4207 12.2318 13.4207C12.2318 13.4207 12.1838 12.9193 12.5388 12.6638L13.2302 12.1352C13.5612 11.8797 13.7917 11.2741 13.4367 10.6764C12.8941 9.78392 12.2605 8.94416 11.5449 8.16921C11.3885 7.98651 11.1691 7.86221 10.9254 7.81829L10.9273 7.82004ZM16.4247 8.85967C15.9351 8.85967 15.9351 9.56151 16.4293 9.56151C17.038 9.57088 17.6388 9.69403 18.1974 9.92392C18.756 10.1538 19.2613 10.4859 19.6846 10.9013C20.0707 11.3056 20.3674 11.7794 20.5572 12.2945C20.7469 12.8096 20.8257 13.3557 20.7891 13.9003C20.7908 13.9925 20.8304 14.0803 20.8995 14.1451C20.9686 14.2099 21.0617 14.2464 21.1588 14.2468L21.1735 14.2652C21.2713 14.2645 21.365 14.2273 21.4341 14.1617C21.5033 14.096 21.5425 14.0072 21.5432 13.9143C21.5764 12.5237 21.121 11.3572 20.2276 10.4226C19.3297 9.488 18.0768 8.96381 16.4772 8.85967H16.4247V8.85967ZM17.0304 10.7464C16.5261 10.7324 16.5067 11.4482 17.0064 11.4622C18.2215 11.5217 18.8115 12.1046 18.889 13.3035C18.8907 13.3945 18.9298 13.4812 18.9981 13.5452C19.0663 13.6091 19.1582 13.6452 19.2541 13.6456H19.2688C19.3181 13.6436 19.3665 13.6323 19.4111 13.6124C19.4558 13.5924 19.4958 13.5642 19.5288 13.5295C19.5619 13.4947 19.5873 13.454 19.6036 13.4098C19.6199 13.3656 19.6267 13.3187 19.6238 13.272C19.5371 11.709 18.6391 10.8287 17.0451 10.7473H17.0304V10.7464Z" fill="white"/>
</svg>
