<svg width="32" height="32" viewBox="0 0 32 32" fill="none" xmlns="http://www.w3.org/2000/svg">
<g clip-path="url(#clip0)">
<path fill-rule="evenodd" clip-rule="evenodd" d="M28.4833 19.6768C28.4833 19.6768 31.0705 22.232 31.7105 23.4144C31.723 23.4314 31.7327 23.4503 31.7393 23.4704C32.0001 23.9072 32.0641 24.2496 31.9361 24.5024C31.7201 24.92 30.9889 25.1296 30.7409 25.1472H26.1681C25.8497 25.1472 25.1873 25.064 24.3809 24.5072C23.7649 24.0768 23.1521 23.368 22.5585 22.6752C21.6721 21.6464 20.9057 20.7536 20.1297 20.7536C20.0317 20.7534 19.9344 20.7696 19.8417 20.8016C19.2545 20.9872 18.5089 21.824 18.5089 24.0528C18.5089 24.7504 17.9585 25.1472 17.5729 25.1472H15.4785C14.7649 25.1472 11.0497 24.8976 7.75534 21.424C3.71854 17.1712 0.0929441 8.63998 0.0577441 8.56478C-0.167856 8.01278 0.305744 7.71198 0.817744 7.71198H5.43534C6.05454 7.71198 6.25614 8.08638 6.39694 8.42238C6.56014 8.80798 7.16494 10.3504 8.15694 12.0832C9.76334 14.9024 10.7505 16.0496 11.5393 16.0496C11.6875 16.05 11.8332 16.0114 11.9617 15.9376C12.9921 15.3712 12.8001 11.6912 12.7521 10.9328C12.7521 10.7856 12.7505 9.28958 12.2225 8.56638C11.8449 8.04798 11.2017 7.84638 10.8129 7.77278C10.9169 7.62238 11.1377 7.39198 11.4209 7.25598C12.1265 6.90398 13.4017 6.85278 14.6673 6.85278H15.3697C16.7425 6.87198 17.0977 6.95998 17.5969 7.08638C18.6017 7.32638 18.6209 7.97758 18.5329 10.1952C18.5073 10.8288 18.4801 11.5424 18.4801 12.3824C18.4801 12.5616 18.4721 12.7616 18.4721 12.9648C18.4417 14.1024 18.4017 15.384 19.2049 15.9104C19.3091 15.9753 19.4294 16.0096 19.5521 16.0096C19.8305 16.0096 20.6641 16.0096 22.9249 12.1296C23.9169 10.416 24.6849 8.39518 24.7377 8.24318C24.7825 8.15838 24.9169 7.91998 25.0801 7.82398C25.1962 7.76222 25.3263 7.73136 25.4577 7.73438H30.8897C31.4817 7.73438 31.8833 7.82398 31.9617 8.04798C32.0929 8.41118 31.9361 9.51998 29.4561 12.8736C29.0385 13.432 28.6721 13.9152 28.3505 14.3376C26.1025 17.288 26.1025 17.4368 28.4833 19.6768V19.6768Z" fill="white"/>
</g>
<defs>
<clipPath id="clip0">
<rect width="32" height="32" fill="white"/>
</clipPath>
</defs>
</svg>
